<?xml version="1.0" encoding="UTF-8"?>
<svg xmlns="http://www.w3.org/2000/svg" xmlns:xlink="http://www.w3.org/1999/xlink" width="40px" height="40px" viewBox="0 0 40 40" version="1.1">
<g id="surface1">
<path style=" stroke:none;fill-rule:evenodd;fill:rgb(0%,0%,0%);fill-opacity:1;" d="M 18.039062 16.96875 L 18.039062 15.53125 C 18.039062 15.269531 18.050781 15.183594 18.09375 15.046875 C 18.199219 14.679688 18.566406 14.402344 18.996094 14.402344 C 19.425781 14.402344 19.792969 14.683594 19.898438 15.046875 C 19.9375 15.183594 19.953125 15.269531 19.953125 15.53125 L 19.953125 17.75 C 19.953125 17.882812 19.953125 18.019531 19.925781 18.140625 C 19.851562 18.476562 19.546875 18.777344 19.210938 18.851562 C 19.089844 18.878906 18.957031 18.878906 18.820312 18.878906 L 16.597656 18.878906 C 16.332031 18.878906 16.246094 18.863281 16.113281 18.824219 C 15.746094 18.714844 15.464844 18.355469 15.464844 17.925781 C 15.464844 17.492188 15.746094 17.132812 16.113281 17.023438 C 16.246094 16.984375 16.332031 16.96875 16.597656 16.96875 Z M 25.964844 27.023438 L 14.035156 27.023438 L 14.035156 16.546875 C 14.035156 16.410156 14.082031 16.296875 14.175781 16.203125 L 17.269531 13.121094 C 17.363281 13.027344 17.480469 12.980469 17.613281 12.980469 L 25.964844 12.980469 Z M 27.320312 10.613281 C 27.257812 10.605469 27.175781 10.601562 27.023438 10.601562 L 17.296875 10.601562 C 17.191406 10.601562 17.082031 10.605469 17.007812 10.613281 C 16.5625 10.652344 16.164062 10.863281 15.847656 11.179688 L 12.230469 14.785156 C 11.914062 15.101562 11.703125 15.5 11.664062 15.941406 C 11.65625 16.015625 11.648438 16.121094 11.648438 16.230469 L 11.648438 28.078125 C 11.648438 28.230469 11.65625 28.3125 11.664062 28.371094 C 11.71875 28.875 12.175781 29.332031 12.679688 29.386719 C 12.742188 29.394531 12.824219 29.398438 12.976562 29.398438 L 27.023438 29.398438 C 27.175781 29.398438 27.257812 29.394531 27.320312 29.386719 C 27.824219 29.332031 28.28125 28.875 28.335938 28.371094 C 28.34375 28.3125 28.351562 28.230469 28.351562 28.078125 L 28.351562 11.921875 C 28.351562 11.769531 28.34375 11.6875 28.335938 11.628906 C 28.28125 11.125 27.824219 10.667969 27.320312 10.613281 Z M 27.320312 10.613281 "/>
</g>
</svg>
