<?xml version="1.0" encoding="UTF-8"?>
<svg width="1000px" height="563px" viewBox="0 0 1000 563" version="1.1" xmlns="http://www.w3.org/2000/svg" xmlns:xlink="http://www.w3.org/1999/xlink">
    <!-- Generator: Sketch 64 (93537) - https://sketch.com -->
    <title>white/logo_tagline</title>
    <desc>Created with Sketch.</desc>
    <g id="white/logo_tagline" stroke="none" stroke-width="1" fill="none" fill-rule="evenodd">
        <path d="M749.883429,374.592942 C753.162086,374.592942 755.82409,377.215868 755.82409,380.492962 C755.82409,383.771619 753.162086,386.394545 749.883429,386.394545 C746.605553,386.394545 743.941986,383.771619 743.941986,380.492962 C743.941986,377.215868 746.605553,374.592942 749.883429,374.592942 Z M374.686938,374.878447 C374.809643,374.878447 374.973772,374.91987 375.219964,375.125421 C378.252429,377.00977 380.956637,379.468567 383.374012,382.623737 C383.620204,382.951994 383.661627,383.073918 383.661627,383.238828 C383.661627,383.443597 383.578782,383.606944 383.251307,383.893778 L380.751868,386.0251 C380.465034,386.270511 380.300906,386.393998 380.1782,386.393998 C379.973431,386.393998 379.809303,386.311934 379.604533,385.983677 C377.504968,382.933679 374.830635,380.228396 372.138556,378.348601 L371.860024,378.157104 C371.613832,377.993758 371.490345,377.870271 371.490345,377.748347 C371.490345,377.62486 371.57319,377.501373 371.777178,377.25518 L374.072629,375.206703 C374.359463,374.91987 374.564232,374.878447 374.686938,374.878447 Z M565.177631,374.878447 C565.301118,374.878447 565.464465,374.91987 565.710657,375.125421 C568.742341,377.00977 571.447331,379.468567 573.864705,382.623737 C574.110898,382.951994 574.152321,383.073918 574.152321,383.238828 C574.152321,383.443597 574.069475,383.606944 573.741218,383.893778 L571.242561,386.0251 C570.955727,386.270511 570.792381,386.393998 570.668112,386.393998 C570.464124,386.393998 570.299214,386.311934 570.094445,385.983677 C567.996391,382.933679 565.321378,380.228396 562.629251,378.348601 L562.350717,378.157104 C562.104525,377.993758 561.981038,377.870271 561.981038,377.748347 C561.981038,377.62486 562.063884,377.501373 562.267872,377.25518 L564.562541,375.206703 C564.849375,374.91987 565.054144,374.878447 565.177631,374.878447 Z M456.285723,363.24191 C458.293559,363.446679 459.35883,363.610026 460.752357,364.020347 C461.120473,364.103192 461.326024,364.30718 461.326024,364.675297 C461.326024,364.758142 461.24396,365.044976 461.080613,365.536579 C460.916485,366.028182 460.875062,366.519786 460.916485,367.21694 C460.916485,369.633533 461.03919,371.396739 461.366665,374.18223 L462.007344,374.442264 C464.512393,375.466967 466.351835,376.328185 468.475296,377.805928 L468.742277,377.993914 C469.128461,378.262404 469.187178,378.424277 469.022032,378.783827 L468.988469,378.853633 C468.37416,380.123673 467.799711,381.149084 467.10412,382.173713 C466.980633,382.378483 466.857928,382.460547 466.734441,382.460547 C466.611735,382.460547 466.488248,382.378483 466.324902,382.213573 C464.521836,380.655918 463.005603,379.755557 461.326024,378.772351 C461.326024,382.869305 458.375623,384.755216 453.70422,384.755216 C449.196164,384.755216 446.164481,382.460547 446.164481,378.935697 C446.164481,375.37177 449.114882,372.953613 453.745643,372.953613 L454.054448,372.955792 C454.813466,372.966509 455.83525,373.020535 456.982096,373.199024 C456.736685,370.57688 456.65384,368.076659 456.61398,366.151669 L456.595633,365.702193 C456.556559,364.8474 456.496076,364.22467 456.285723,363.24191 Z M687.228483,349.718601 L687.705267,349.736784 C689.82003,349.825817 691.510554,350.011455 692.416752,350.264642 L692.514194,350.29305 C692.965156,350.416537 693.170707,350.621307 693.170707,350.949563 C693.170707,351.236397 693.04722,351.481808 692.883874,351.768641 C692.767651,352.000352 692.687428,352.594145 692.678392,353.346724 L692.677541,358.038341 C694.440747,357.792148 696.202391,357.505315 697.922611,357.136417 C698.415778,357.013711 698.620547,357.094994 698.66197,357.505315 C698.825317,358.529944 698.907381,359.51315 698.988663,360.578421 C699.029305,361.111447 698.825317,361.274794 698.455637,361.315435 C696.489224,361.685114 694.68694,361.930525 692.80181,362.135295 L692.842451,368.445635 C692.882619,372.140297 692.266508,375.335953 691.146627,377.730442 L691.040166,377.952569 C689.770126,380.655996 687.720086,382.828741 685.180006,384.30277 C684.729044,384.590385 684.44221,384.672449 684.155377,384.672449 L684.032088,384.671573 C683.780629,384.665877 683.620006,384.623158 683.335517,384.30277 C682.598503,383.64782 681.533232,382.952228 680.138924,382.295715 C683.99203,380.247238 685.835737,378.362108 687.065136,375.493772 C687.965497,373.403872 688.375818,370.618381 688.335176,366.355735 L688.293754,362.626898 L687.215072,362.705299 C685.591426,362.817373 684.358311,362.872309 683.37694,362.872309 L683.081953,362.884582 C682.374445,362.90964 681.52699,362.90964 680.423751,362.884582 L679.934936,362.872309 C679.360487,362.872309 679.033794,362.668321 678.993152,362.21814 C678.828242,361.398281 678.74696,360.291587 678.540627,358.488521 C679.941669,358.639303 681.79489,358.686196 683.263653,358.692519 L683.622351,358.693291 C684.770467,358.693291 686.695457,358.651868 688.17183,358.529944 C688.088984,356.481467 688.088984,354.636978 687.925637,353.080104 L687.868679,352.597723 C687.728048,351.448276 687.590531,350.695095 687.228483,349.718601 Z M315.334409,349.064355 C317.137475,350.129625 318.694349,351.194896 319.842465,352.178102 C320.047234,352.341449 320.16994,352.669705 320.16994,352.833052 C320.16994,353.174295 319.995462,353.409651 319.679086,353.573547 L319.597054,353.613052 C319.104669,353.858463 318.490361,354.226579 317.62986,355.046439 L316.831349,355.764307 C313.444792,358.821688 309.364743,362.664856 306.442565,365.699926 L306.297174,365.881381 C306.030905,366.220957 305.910321,366.426333 305.910321,366.60185 C305.910321,366.848042 306.074449,367.05203 306.442565,367.338864 C311.769699,371.190407 317.301603,375.65704 321.686172,380.24716 C321.849519,380.45193 321.973006,380.61684 321.973006,380.780186 C321.973006,380.943533 321.890942,381.06702 321.686172,381.27179 C320.743607,382.295637 319.555631,383.485176 318.858477,384.098703 C318.613066,384.303473 318.448938,384.42696 318.285591,384.42696 C318.121463,384.42696 317.998758,384.303473 317.793206,384.057281 C313.189042,378.898134 308.738176,374.736517 303.397507,370.606785 L302.877856,370.2072 C301.320982,369.020006 300.706673,368.118082 300.706673,366.765196 C300.706673,365.514695 301.338544,364.648141 302.440353,363.45328 L302.713727,363.159846 C305.906869,359.705206 309.031053,356.557917 312.243404,353.09069 L313.121804,352.136679 C314.228497,350.949485 314.843587,350.088202 315.334409,349.064355 Z M725.697333,350.04717 C726.107653,350.04717 726.353846,350.170657 726.640679,350.375427 C727.869297,351.31721 728.689156,352.13707 729.385529,352.997571 C729.713786,353.365687 729.835709,353.652521 729.835709,353.980778 C729.835709,354.364473 729.621929,354.710042 729.226777,354.920898 L729.139337,354.963984 C728.443745,355.29224 728.115489,355.579074 727.337052,356.275447 C724.345228,359.184425 721.600379,362.052762 718.48585,365.044585 L718.527273,365.167291 C720.821942,363.855828 722.746932,363.322802 725.042383,363.322802 C731.024467,363.322802 735.204267,367.257972 735.204267,373.157992 C735.204267,380.001359 729.672363,384.385146 720.902443,384.385146 C715.740218,384.385146 712.625689,382.173323 712.625689,378.361639 C712.625689,375.617571 715.207192,373.362762 718.403786,373.362762 C722.255329,373.362762 725.083806,375.411238 726.107653,379.344846 C728.97599,378.034164 730.287453,376.231098 730.287453,373.117351 C730.287453,369.387731 727.665309,366.929715 723.853625,366.929715 C720.452263,366.929715 716.683565,368.445948 713.363485,371.272862 C712.703498,371.864679 712.056055,372.49485 711.400116,373.148769 L709.798776,374.756289 C709.511942,375.043122 709.307172,375.206469 709.103184,375.206469 C708.938275,375.206469 708.733505,375.084545 708.488094,374.839134 C707.626812,374.099776 706.726451,373.034505 706.069938,372.174786 C705.823745,371.847311 705.948014,371.559695 706.273926,371.231439 C709.470519,368.650717 712.298214,366.027792 715.985629,362.176248 L716.949992,361.177562 C719.028766,359.014839 720.698149,357.201022 722.337393,355.170317 C719.878595,355.620497 716.970399,356.194164 714.428756,356.72719 L714.072165,356.810034 C713.712981,356.895768 713.341947,356.994161 712.922476,357.141108 L712.708535,357.218794 C712.503766,357.299295 712.093445,357.422782 711.888675,357.422782 C711.478355,357.422782 711.192303,357.218794 710.986752,356.72719 L710.88998,356.53552 C710.445153,355.625687 710.088788,354.481603 709.553365,352.30198 C710.781982,352.465327 712.134868,352.465327 713.363485,352.382481 C715.863705,352.13707 719.469056,351.604044 722.665649,350.990517 L723.018445,350.917786 C723.877497,350.736176 724.558227,350.556106 724.918896,350.375427 C725.123665,350.25194 725.492563,350.04717 725.697333,350.04717 Z M542.671114,350.04717 C543.081435,350.04717 543.327627,350.170657 543.614461,350.375427 C544.843078,351.31721 545.662938,352.13707 546.359311,352.997571 C546.687567,353.365687 546.809491,353.652521 546.809491,353.980778 C546.809491,354.364473 546.595711,354.710042 546.200558,354.920898 L546.113118,354.963984 C545.417527,355.29224 545.089271,355.579074 544.310834,356.275447 C541.31901,359.184425 538.57416,362.052762 535.459631,365.044585 L535.501054,365.167291 C537.795723,363.855828 539.720713,363.322802 542.016164,363.322802 C547.998248,363.322802 552.178048,367.257972 552.178048,373.157992 C552.178048,380.001359 546.646144,384.385146 537.876224,384.385146 C532.714,384.385146 529.599471,382.173323 529.599471,378.361639 C529.599471,375.617571 532.180974,373.362762 535.377567,373.362762 C539.22911,373.362762 542.057587,375.411238 543.081435,379.344846 C545.949772,378.034164 547.261234,376.231098 547.261234,373.117351 C547.261234,369.387731 544.63909,366.929715 540.827407,366.929715 C537.426044,366.929715 533.657347,368.445948 530.337267,371.272862 C529.281288,372.219769 528.257421,373.264864 527.179486,374.348314 L526.772557,374.756289 C526.485723,375.043122 526.280954,375.206469 526.076966,375.206469 C525.912056,375.206469 525.707287,375.084545 525.461876,374.839134 C524.600593,374.099776 523.700232,373.034505 523.043719,372.174786 C522.797527,371.847311 522.921796,371.559695 523.247707,371.231439 C526.444301,368.650717 529.271996,366.027792 532.959411,362.176248 L533.923773,361.177562 C536.002547,359.014839 537.671931,357.201022 539.311174,355.170317 C536.852377,355.620497 533.94418,356.194164 531.402537,356.72719 L531.045947,356.810034 C530.686762,356.895768 530.315729,356.994161 529.896258,357.141108 L529.682317,357.218794 C529.477547,357.299295 529.067226,357.422782 528.862457,357.422782 C528.452136,357.422782 528.166084,357.218794 527.960533,356.72719 C527.46893,355.783844 527.100814,354.637291 526.527146,352.30198 C527.755764,352.465327 529.108649,352.465327 530.337267,352.382481 C532.837487,352.13707 536.442838,351.604044 539.639431,350.990517 L539.992226,350.917786 C540.851278,350.736176 541.532009,350.556106 541.892677,350.375427 C542.097447,350.25194 542.466345,350.04717 542.671114,350.04717 Z M352.180343,350.04717 C352.589882,350.04717 352.836074,350.170657 353.122908,350.375427 C354.352307,351.31721 355.172166,352.13707 355.868539,352.997571 C356.196796,353.365687 356.319501,353.652521 356.319501,353.980778 C356.319501,354.364473 356.105721,354.710042 355.709933,354.920898 L355.622347,354.963984 C354.926756,355.29224 354.598499,355.579074 353.820062,356.275447 C350.82902,359.184425 348.083389,362.052762 344.96886,365.044585 L345.009501,365.167291 C347.304952,363.855828 349.230723,363.322802 351.524611,363.322802 C357.507477,363.322802 361.687277,367.257972 361.687277,373.157992 C361.687277,380.001359 356.155373,384.385146 347.386234,384.385146 C342.223228,384.385146 339.108699,382.173323 339.108699,378.361639 C339.108699,375.617571 341.690202,373.362762 344.886796,373.362762 C348.73912,373.362762 351.566034,375.411238 352.589882,379.344846 C355.458218,378.034164 356.769681,376.231098 356.769681,373.117351 C356.769681,369.387731 354.147537,366.929715 350.336635,366.929715 C346.935273,366.929715 343.165794,368.445948 339.846495,371.272862 C338.658519,372.338132 337.511184,373.527671 336.281786,374.756289 C335.994952,375.043122 335.789401,375.206469 335.585413,375.206469 C335.421285,375.206469 335.216515,375.084545 334.971104,374.839134 C334.109822,374.099776 333.208679,373.034505 332.552948,372.174786 C332.306756,371.847311 332.430242,371.559695 332.757717,371.231439 C335.953529,368.650717 338.782006,366.027792 342.468639,362.176248 L343.43277,361.177562 C345.511185,359.014839 347.181159,357.201022 348.820403,355.170317 C346.362387,355.620497 343.452627,356.194164 340.911766,356.72719 L340.555175,356.810034 C340.195991,356.895768 339.824958,356.994161 339.405486,357.141108 L339.191545,357.218794 C338.985994,357.299295 338.576455,357.422782 338.371685,357.422782 C337.962146,357.422782 337.674531,357.218794 337.470543,356.72719 L337.373616,356.53552 C336.928065,355.625687 336.571068,354.481603 336.036375,352.30198 C337.264992,352.465327 338.617878,352.465327 339.846495,352.382481 C342.345934,352.13707 345.952066,351.604044 349.148659,350.990517 L349.501455,350.917786 C350.360507,350.736176 351.041237,350.556106 351.401906,350.375427 C351.607457,350.25194 351.975573,350.04717 352.180343,350.04717 Z M749.883429,377.091599 C747.956876,377.091599 746.482066,378.566409 746.482066,380.492962 C746.482066,382.419515 747.956876,383.894325 749.883429,383.894325 C751.8092,383.894325 753.28401,382.419515 753.28401,380.492962 C753.28401,378.566409 751.8092,377.091599 749.883429,377.091599 Z M491.01878,349.718914 L491.55324,349.833343 C493.35258,350.223018 494.43924,350.510909 495.936375,351.0718 C496.345914,351.195287 496.592106,351.523543 496.592106,351.890878 C496.592106,352.095647 496.509261,352.30198 496.304491,352.505968 C495.894952,353.038994 495.690182,353.489174 495.485413,354.063623 C494.952387,355.742421 494.542066,357.260216 494.009822,358.980437 C495.116515,358.857731 496.345914,358.81709 497.287697,358.81709 C501.098599,358.81709 503.148639,361.480657 503.148639,366.725727 C503.148639,371.150938 502.327216,376.600778 500.935253,379.551178 C499.748058,382.173323 497.780082,383.402721 495.403349,383.402721 C493.518121,383.402721 492.15975,383.214661 491.256698,382.837851 L491.141485,382.787631 C490.649882,382.582862 490.404471,382.254605 490.404471,381.641078 L490.359064,381.156219 C490.252787,380.039399 490.127211,379.012486 489.625253,377.829395 C491.469741,378.689896 493.068038,378.894665 494.338078,378.894665 C495.690182,378.894665 496.304491,378.403062 496.960222,376.722701 C497.821505,374.428032 498.558519,370.535848 498.558519,366.519395 L498.556112,366.197106 C498.515639,363.583131 497.956174,362.750697 496.223208,362.750697 C495.23922,362.750697 493.96918,362.872621 492.781204,363.037531 L492.422617,364.073583 C489.866864,371.40754 487.598086,376.814318 484.544311,382.296028 C484.298118,382.828273 483.970643,382.911118 483.47904,382.664926 L483.268345,382.555511 C482.471648,382.129066 481.1002,381.273676 480.651345,380.862641 C480.446575,380.656309 480.32387,380.492962 480.32387,380.247551 C480.32387,380.123283 480.364511,379.959936 480.487998,379.796589 C483.765092,374.099776 485.896415,369.757411 487.986315,363.733904 L487.362101,363.832008 C486.041949,364.044216 484.9291,364.252705 483.970643,364.429495 C482.905373,364.635828 482.249641,364.881238 481.716615,365.086008 C481.142948,365.290778 480.651345,365.207932 480.405934,364.553764 C480.037036,363.609635 479.586074,362.135607 479.135894,360.332541 C480.938178,360.332541 482.741244,360.209054 484.544311,360.045707 C486.265313,359.882361 487.781545,359.676028 489.379842,359.430617 L489.524771,358.907317 C490.079586,356.875017 490.343689,355.554665 490.608459,354.267611 C490.81401,353.038994 491.01878,351.440697 491.01878,349.718914 Z M633.374954,350.210126 C635.34293,350.210126 637.22806,350.334395 638.743511,350.703293 C639.235114,350.825998 639.481307,351.029986 639.481307,351.358242 C639.481307,351.932691 639.194473,352.506359 639.194473,353.080026 C639.194473,353.898323 639.31796,354.883092 639.398461,355.824876 C639.76814,358.693212 640.176898,360.741689 640.709924,362.873012 L642.234279,362.053303 C643.592902,361.325385 644.838428,360.664356 646.528661,359.758483 C647.7182,359.062892 648.701407,358.364956 649.356357,357.546659 C650.667038,358.897982 651.73309,360.332932 652.34818,361.398202 C652.511527,361.643613 652.635014,361.97187 652.635014,362.258703 C652.635014,362.668242 652.388822,362.996499 651.815154,363.077 C650.586537,363.283333 649.19301,363.774936 647.881547,364.307962 C644.358261,365.741349 641.079603,367.258363 638.252689,369.100507 C634.686417,371.438162 633.416377,373.362371 633.416377,375.288924 C633.416377,377.630705 635.047679,378.700071 639.994595,378.731017 L640.218321,378.731709 C644.665,378.731709 648.995789,378.384774 652.130641,377.841541 L652.430244,377.788363 C652.880425,377.70708 653.085194,377.788363 653.16804,378.279966 C653.372028,379.386659 653.495515,380.862251 653.576798,382.090868 C653.61822,382.54183 653.331387,382.745818 652.839784,382.78724 C649.110164,383.278844 645.83307,383.402331 640.629423,383.402331 C632.883351,383.402331 628.786397,380.862251 628.786397,375.535116 C628.786397,370.985637 631.776657,367.995377 636.571547,364.96213 C635.646176,361.992558 634.938886,358.551517 634.51679,355.525826 L634.371916,354.456588 C634.106417,352.565436 633.828667,351.266393 633.374954,350.210126 Z M596.652585,349.842479 C598.618216,349.842479 600.504128,349.964403 602.019579,350.334082 C602.512745,350.457569 602.758156,350.662339 602.758156,350.990595 C602.758156,351.562699 602.471323,352.137148 602.471323,352.710816 C602.471323,353.530675 602.593246,354.513882 602.676092,355.455665 C603.04499,358.325565 603.454529,360.374042 603.987555,362.504583 L606.948235,360.916471 C607.815398,360.453779 608.718604,359.972812 609.806293,359.390836 C610.993487,358.6929 611.976693,357.997309 612.633206,357.177449 C613.944669,358.529553 615.00994,359.96294 615.62503,361.028992 C615.788377,361.274403 615.910301,361.602659 615.910301,361.889493 C615.910301,362.299032 615.66489,362.627289 615.092786,362.709353 C613.861824,362.914122 612.46986,363.405725 611.158397,363.93797 C607.634329,365.37292 604.35489,366.889152 601.527976,368.73286 C597.964048,371.06817 596.694008,372.994723 596.694008,374.919713 C596.694008,377.300667 598.441264,378.329884 602.99292,378.360989 L603.208337,378.361717 C608.371343,378.361717 612.551142,377.994383 615.706313,377.419934 C616.132959,377.342429 616.339311,377.411322 616.428738,377.833353 L616.443327,377.911537 C616.649659,379.01823 616.771583,380.49304 616.853647,381.721657 C616.89507,382.173401 616.608236,382.37817 616.116633,382.419593 L615.498914,382.498147 C612.11987,382.911831 609.00764,383.026448 604.333943,383.03312 L603.904709,383.03312 C596.160982,383.03312 592.062465,380.49304 592.062465,375.165124 C592.062465,370.61799 595.054289,367.626166 599.849178,364.594483 C598.922336,361.624911 598.21496,358.183177 597.79351,355.158057 L597.648911,354.088623 C597.383818,352.196466 597.10486,350.898746 596.652585,349.842479 Z M669.075116,350.170345 C670.960246,350.621307 672.313132,351.071487 673.378403,351.603731 C674.034916,351.931988 674.280327,352.219603 674.280327,352.506437 L674.279611,352.579537 C674.275318,352.733138 674.245268,352.938418 674.034916,353.326297 C673.828583,353.858541 673.541749,354.963671 673.256479,356.35798 L672.843195,358.710194 C672.223288,362.28435 671.698042,365.688867 671.698042,368.650405 L671.701307,369.513333 C671.719318,371.782186 671.816579,373.777198 672.108363,375.125655 C673.132992,372.953691 673.870006,371.560164 674.853212,369.265495 C675.42688,370.822369 675.796559,371.355395 676.205317,372.010345 C676.451509,372.297178 676.574996,372.543371 676.574996,372.788782 C676.574996,373.075615 676.49215,373.321808 676.083393,374.140886 L675.8848,374.586613 C674.935353,376.740078 674.622896,377.796745 674.239685,379.140545 C674.15684,379.468802 674.115417,379.918982 674.115417,380.205816 L674.115417,381.189022 C674.115417,381.475856 673.993493,381.599343 673.583172,381.762689 C672.422073,382.266103 671.70017,382.47672 670.898638,382.602596 L670.756259,382.623972 C670.264655,382.706036 670.059886,382.582549 669.813693,382.090946 C668.503012,379.468802 667.396319,373.650064 667.396319,369.387419 L667.400654,368.759463 C667.444165,365.588817 667.817483,361.922172 668.624936,356.275134 L668.705009,355.647968 C668.913323,353.975264 669.075116,352.283691 669.075116,350.170345 Z M276.971774,355.374226 C284.306743,355.374226 289.018788,359.800218 289.018788,366.232483 C289.018788,371.518447 286.75478,374.89728 282.030555,377.502967 L281.807305,377.624547 C278.365301,379.5511 275.168707,380.20605 271.399228,381.02591 C270.579369,381.189257 270.251112,381.149397 269.96506,380.37096 C269.472675,379.222844 268.448828,377.994226 267.096723,377.132944 L267.746652,377.023074 C272.742466,376.166517 275.528625,375.397363 278.201172,374.099697 C281.683818,372.338836 283.856563,369.71591 283.856563,365.945649 C283.856563,362.094106 281.356343,359.717373 276.807645,359.717373 C273.12023,359.717373 268.244058,361.193745 262.015,363.937814 L261.329936,364.276205 C260.349347,364.755367 259.590307,365.111721 259.188086,365.414186 C258.614419,365.90579 258.286944,366.027713 258.081393,366.027713 C257.671854,366.027713 257.344379,365.782303 256.893417,365.167212 C256.155621,364.26607 255.131774,362.667774 254.270491,360.906912 L254.558435,360.8722 C256.118312,360.673913 257.59699,360.309639 261.274688,359.091384 L262.929821,358.538009 C268.914917,356.550223 273.778484,355.374226 276.971774,355.374226 Z M416.570046,355.374226 C423.905016,355.374226 428.61706,359.800218 428.61706,366.232483 C428.61706,371.518447 426.353052,374.89728 421.628828,377.502967 L421.405577,377.624547 C417.963573,379.5511 414.76698,380.20605 410.997501,381.02591 C410.177641,381.189257 409.849385,381.149397 409.563333,380.37096 C409.070948,379.222844 408.0471,377.994226 406.694214,377.132944 L407.344235,377.023074 C412.340738,376.166517 415.126898,375.397363 417.799445,374.099697 C421.28209,372.338836 423.454836,369.71591 423.454836,365.945649 C423.454836,362.094106 420.954615,359.717373 416.405918,359.717373 C412.718503,359.717373 407.842331,361.193745 401.613273,363.937814 L400.766852,364.35494 C399.864383,364.794796 399.166234,365.128525 398.786359,365.414186 C398.212691,365.90579 397.885216,366.027713 397.679665,366.027713 C397.270126,366.027713 396.942651,365.782303 396.491689,365.167212 C395.753894,364.26607 394.730046,362.667774 393.868764,360.906912 L394.156708,360.8722 C395.748419,360.669867 397.255583,360.294701 401.100893,359.015724 L402.528091,358.538009 C408.513132,356.550223 413.376004,355.374226 416.570046,355.374226 Z M453.70422,376.4769 C451.655743,376.4769 450.057447,377.29676 450.057447,378.853633 C450.057447,380.165096 451.204782,380.820828 453.540092,380.820828 C455.752697,380.820828 457.105583,379.63207 457.105583,377.91185 L457.104936,377.662299 C457.102994,377.437245 457.095227,377.276048 457.06416,377.09199 C456.080954,376.763733 454.974261,376.4769 453.70422,376.4769 Z M718.567132,376.846188 C717.379156,376.846188 716.600719,377.542561 716.600719,378.403062 C716.600719,379.673102 717.707413,380.534385 720.165429,380.534385 C720.902443,380.534385 721.435469,380.492962 722.050559,380.371038 C721.517533,378.116228 720.288916,376.846188 718.567132,376.846188 Z M535.540914,376.846188 C534.352938,376.846188 533.574501,377.542561 533.574501,378.403062 C533.574501,379.673102 534.681194,380.534385 537.13921,380.534385 C537.876224,380.534385 538.409251,380.492962 539.024341,380.371038 C538.491315,378.116228 537.262697,376.846188 535.540914,376.846188 Z M345.050924,376.846188 C343.862166,376.846188 343.083729,377.542561 343.083729,378.403062 C343.083729,379.673102 344.189641,380.534385 346.64922,380.534385 C347.386234,380.534385 347.919261,380.492962 348.533569,380.371038 C348.000543,378.116228 346.771926,376.846188 345.050924,376.846188 Z M446.942918,348.818162 L447.873196,348.949114 C449.31179,349.15484 450.691111,349.375003 451.737026,349.679445 C452.147347,349.759946 452.392758,350.006138 452.392758,350.292972 C452.392758,350.621228 452.270052,350.825216 452.024641,351.071409 C451.778449,351.399665 451.614321,351.769345 451.36891,352.58686 C451.082076,353.571629 450.75382,354.841669 450.384922,356.070287 C451.983218,355.90694 453.868349,355.538042 455.465864,355.169926 C455.835543,355.046439 455.99889,355.046439 456.080954,355.496619 C456.285723,356.521248 456.408429,357.751429 456.449852,358.816699 C456.449852,359.184816 456.285723,359.26688 455.958248,359.308303 C453.745643,359.758483 451.737026,360.045317 449.196164,360.414996 L448.748522,361.58964 C446.370327,367.789395 444.12806,372.958616 441.457848,377.563815 L441.206244,377.993914 C441.042116,378.279184 440.919411,378.403453 440.756064,378.403453 C440.632577,378.403453 440.468449,378.320607 440.263679,378.198683 C439.321896,377.625016 438.133138,376.763733 437.436766,376.108784 C437.231996,375.943874 437.14915,375.82195 437.14915,375.65704 C437.14915,375.535116 437.190573,375.37177 437.354701,375.165437 C440.427808,370.085277 442.599772,365.78199 444.442697,360.865176 C443.245102,360.928904 442.217231,360.94361 441.228527,360.947004 L439.626454,360.946736 C439.169484,360.94393 438.794318,360.935003 438.091715,360.906599 C437.682176,360.906599 437.600894,360.783112 437.518048,360.250086 C437.313279,359.471649 437.190573,358.119545 437.108509,356.768222 L437.853109,356.820109 C439.092432,356.902194 439.918352,356.931569 440.919411,356.931569 L441.469865,356.929718 C442.816043,356.920135 443.968794,356.870929 445.631455,356.7268 C446.12384,355.005016 446.410673,353.613052 446.696725,352.136679 C446.942918,350.703293 446.942918,350.088202 446.942918,348.818162 Z M507.615273,357.218794 C510.399982,359.840938 512.900202,363.242301 514.417216,367.175908 C514.569673,367.519483 514.543753,367.721446 514.306413,367.947011 L514.252307,367.995768 C513.556715,368.650717 511.99906,369.633924 511.178419,370.044244 C510.76888,370.249014 510.360122,370.207591 510.237417,369.715988 C508.598479,365.414265 506.467156,361.889415 503.516756,359.103924 L504.148809,358.673489 C504.90463,358.161146 505.716978,357.625289 506.502211,357.192718 L506.836836,357.014024 C507.122106,356.849114 507.328439,356.93196 507.615273,357.218794 Z M462.186525,356.481389 C464.6039,357.136339 467.841134,358.775277 470.217868,360.332932 C470.463279,360.496279 470.586766,360.619766 470.586766,360.783112 C470.586766,360.906599 470.545343,361.069946 470.422637,361.274715 C470.044601,362.107261 469.386867,363.253467 468.837324,364.101687 L468.702417,364.30718 C468.578148,364.51195 468.455443,364.594796 468.332737,364.594796 C468.210032,364.594796 468.127968,364.553373 467.96384,364.429886 C465.546465,362.791729 462.596064,360.9871 459.482317,359.963253 L459.724474,359.530393 C460.321499,358.45218 460.855707,357.418529 461.326024,356.768222 C461.571435,356.357902 461.776204,356.316479 462.186525,356.481389 Z M508.500568,351.314297 L508.555493,351.358633 C509.827096,352.34184 511.301906,353.980778 512.450022,355.742421 C512.613369,355.988613 512.613369,356.194164 512.325754,356.398934 L510.605533,357.668974 C510.318699,357.873743 510.11393,357.832321 509.908379,357.54705 C508.67898,355.66192 507.368299,354.104265 505.771565,352.793583 L507.941966,351.275788 C508.130984,351.125006 508.286039,351.148703 508.500568,351.314297 L508.500568,351.314297 Z M652.701705,351.231843 L652.756938,351.276178 C654.028541,352.260166 655.503351,353.898323 656.651467,355.661529 C656.814814,355.907721 656.814814,356.111709 656.527198,356.316479 L654.806978,357.586519 C654.520144,357.792852 654.315375,357.751429 654.109824,357.464595 C652.880425,355.579465 651.569743,354.02181 649.971447,352.711128 L652.143411,351.194896 C652.332429,351.042671 652.486152,351.066257 652.701705,351.231843 Z M512.20383,348.695066 C513.647861,349.787766 515.055029,351.327073 515.964211,352.709409 L516.096796,352.915507 C516.260142,353.160918 516.300784,353.40711 515.972527,353.652521 L514.335152,354.924124 C514.006896,355.170317 513.800563,355.046048 513.63878,354.800637 C512.530523,353.038994 511.220623,351.48212 509.540263,350.088593 L511.588739,348.613784 C511.83415,348.448874 511.958419,348.490297 512.20383,348.695066 Z M656.405275,348.613393 C657.849305,349.705348 659.255056,351.24462 660.165453,352.626954 L660.29824,352.833052 C660.461587,353.080026 660.502228,353.326218 660.173972,353.571629 L658.535034,354.841669 C658.208341,355.087862 658.002008,354.963593 657.838661,354.718182 C656.731968,352.956539 655.420505,351.399665 653.741707,350.006138 L655.790184,348.531329 C656.035595,348.367982 656.158301,348.407842 656.405275,348.613393 Z M534.857515,208.837002 C557.407956,208.837002 574.429619,225.332673 574.429619,247.092172 C574.429619,268.851671 557.407956,285.347343 534.857515,285.347343 C512.308637,285.347343 495.286974,268.851671 495.286974,247.092172 C495.286974,225.332673 512.308637,208.837002 534.857515,208.837002 Z M707.357094,209.187924 C731.748898,209.187924 742.892425,228.140048 742.892425,248.846782 C742.892425,250.206701 742.892425,251.522854 742.760341,252.882774 C742.672806,253.760469 742.234349,254.287242 741.356653,254.287242 L691.739118,254.287242 C693.757114,263.279908 699.635251,268.676601 709.638477,268.676601 C715.692465,268.676601 720.64992,267.14083 726.571824,262.09584 C727.186132,261.569066 727.844208,261.525299 728.503066,262.09584 L738.154589,270.782132 C738.811884,271.352673 738.943186,272.098285 738.329659,272.80091 C731.090822,281.091731 721.658918,285.347343 709.37509,285.347343 C687.263888,285.347343 671.207455,269.817683 671.207455,247.179707 C671.207455,226.385439 686.036052,209.187924 707.357094,209.187924 Z M626.459058,191.815339 C627.303747,191.815339 627.822545,192.30237 627.861203,193.119408 L627.863527,193.219026 L627.863527,210.591611 L643.656573,210.591611 C644.500511,210.591611 645.019279,211.078643 645.057936,211.896375 L645.060261,211.99608 L645.060261,226.736361 C645.060261,227.580299 644.573951,228.099067 643.756275,228.137724 L643.656573,228.140048 L627.863527,228.140048 L627.863527,259.990309 C627.863527,264.815679 630.012826,267.097062 634.269218,267.097062 C637.427515,267.097062 640.015271,266.833675 643.130581,265.254918 C644.065648,264.787006 644.753533,265.060641 644.795613,265.955738 L644.797655,266.044297 L644.797655,279.819347 C644.797655,280.52119 644.534269,281.136281 643.832425,281.574737 C640.015271,283.942874 634.970281,285.347343 628.389519,285.347343 C617.027154,285.347343 608.911403,281.267583 607.376413,268.281912 C607.200561,266.789908 607.156794,264.771912 607.156794,262.09584 L607.156794,228.140048 L599.786653,228.140048 C598.942715,228.140048 598.423947,227.653739 598.38529,226.836063 L598.382966,226.736361 L598.382966,211.99608 C598.382966,211.152142 598.869275,210.632651 599.686951,210.593939 L599.786653,210.591611 L607.156794,210.591611 L607.156794,193.219026 C607.156794,192.37584 607.643103,191.856378 608.460779,191.817666 L608.560481,191.815339 L626.459058,191.815339 Z M443.870281,208.837002 C457.075571,208.837002 465.586794,216.251691 467.955711,228.666822 C468.377929,230.863709 468.597219,233.467176 468.612884,236.751498 L468.613788,282.188265 C468.613788,283.06596 468.087014,283.592733 467.209319,283.592733 L449.310741,283.592733 C448.433046,283.592733 447.906273,283.06596 447.906273,282.188265 L447.906273,242.529407 C447.906273,232.790349 443.255972,227.614056 435.359058,227.614056 C427.462926,227.614056 422.461703,232.702814 422.461703,242.529407 L422.461703,282.188265 C422.461703,283.06596 421.93493,283.592733 421.058016,283.592733 L403.158657,283.592733 C402.280962,283.592733 401.75497,283.06596 401.75497,282.188265 L401.75497,211.99608 C401.75497,211.118385 402.280962,210.591611 403.158657,210.591611 L421.058016,210.591611 C421.93493,210.591611 422.461703,211.118385 422.461703,211.99608 L422.461703,220.331451 C429.348838,211.118385 437.377836,208.837002 443.870281,208.837002 Z M534.857515,226.736361 C523.100461,226.736361 515.730321,236.212032 515.730321,247.092172 C515.730321,257.971531 523.100461,267.447984 534.857515,267.447984 C546.615351,267.447984 553.985491,257.971531 553.985491,247.092172 C553.985491,236.212032 546.615351,226.736361 534.857515,226.736361 Z M707.357094,225.77113 C698.977956,225.77113 693.581263,231.561731 691.29988,241.389106 L722.755451,241.389106 C721.307996,232.263575 716.305992,225.77113 707.357094,225.77113 Z" id="Shape" fill="#FFFFFF"></path>
        <path d="M288.042068,217.96222 L288.042068,208.574084 C288.042068,206.863242 288.130385,206.292701 288.39299,205.415006 C289.094834,203.002321 291.464533,201.203944 294.271908,201.203944 C297.079283,201.203944 299.4482,203.046088 300.150044,205.415006 C300.413431,206.292701 300.501747,206.863242 300.501747,208.574084 L300.501747,223.050978 C300.501747,223.928673 300.501747,224.805587 300.325896,225.595747 C299.843671,227.788814 297.869443,229.763824 295.675595,230.246048 C294.886216,230.421118 294.008521,230.421118 293.130826,230.421118 L278.653932,230.421118 C276.94309,230.421118 276.372549,230.333583 275.494854,230.070196 C273.125936,229.368353 271.283792,226.999435 271.283792,224.19206 C271.283792,221.383904 273.125936,219.014986 275.494854,218.313142 C276.372549,218.049756 276.94309,217.96222 278.653932,217.96222 L288.042068,217.96222 Z M339.633832,283.593202 L261.98319,283.593202 L261.98319,215.198613 C261.98319,214.320918 262.290345,213.575307 262.904653,212.960998 L283.040846,192.824024 C283.655154,192.210497 284.400766,191.903343 285.278461,191.903343 L339.633832,191.903343 L339.633832,283.593202 Z M348.452208,176.460437 C348.057519,176.416669 347.530745,176.372902 346.521747,176.372902 L283.215916,176.372902 C282.514854,176.372902 281.81301,176.416669 281.330004,176.460437 C278.434313,176.723824 275.845776,178.083743 273.784012,180.145507 L250.225355,203.704164 C248.164373,205.766709 246.803671,208.354465 246.541066,211.250156 C246.496517,211.732381 246.452749,212.434224 246.452749,213.136068 L246.452749,290.480337 C246.452749,291.489335 246.496517,292.016108 246.541066,292.410798 C246.891206,295.701178 249.874433,298.683623 253.164814,299.034545 C253.560285,299.079094 254.086277,299.122862 255.095275,299.122862 L346.521747,299.122862 C347.530745,299.122862 348.057519,299.079094 348.452208,299.034545 C351.742589,298.683623 354.725816,295.701178 355.076737,292.410798 C355.119723,292.016108 355.164273,291.489335 355.164273,290.480337 L355.164273,185.015427 C355.164273,184.006429 355.119723,183.479655 355.076737,183.084966 C354.725816,179.794585 351.742589,176.811359 348.452208,176.460437 Z" id="Shape" fill="#FFFFFF"></path>
    </g>
</svg>